<svg xmlns="http://www.w3.org/2000/svg" viewBox="0 0 1440 810" role="img" aria-labelledby="title desc">
  <title id="title">Aerial view of Wilfrid Laurier University stadium</title>
  <desc id="desc">Stylized bird's-eye illustration of the Laurier stadium with the Golden Hawks field and surrounding campus buildings at sunset.</desc>
  <defs>
    <linearGradient id="sunset" x1="0" y1="0" x2="0" y2="1">
      <stop offset="0%" stop-color="#fde8c8" />
      <stop offset="100%" stop-color="#f7f9fc" />
    </linearGradient>
    <linearGradient id="field" x1="0" y1="0" x2="1" y2="1">
      <stop offset="0%" stop-color="#0f5132" />
      <stop offset="100%" stop-color="#14643e" />
    </linearGradient>
    <linearGradient id="track" x1="0" y1="0" x2="1" y2="0">
      <stop offset="0%" stop-color="#702f8a" />
      <stop offset="100%" stop-color="#4f1f6c" />
    </linearGradient>
    <linearGradient id="roof" x1="0" y1="0" x2="1" y2="1">
      <stop offset="0%" stop-color="#e8ecf5" />
      <stop offset="100%" stop-color="#cdd5e5" />
    </linearGradient>
  </defs>
  <rect width="1440" height="810" fill="url(#sunset)" />
  <path d="M0 520c180-80 340-120 520-120s360 40 560 140 360 170 360 170v100H0Z" fill="#e6edf7" />
  <path d="M-40 700c200-140 420-200 640-190 220 10 440 90 660 230v70H-40Z" fill="#dbe5f2" />
  <g transform="translate(160 200) rotate(-4 560 320)">
    <rect x="120" y="90" width="880" height="460" rx="40" fill="#f0f3f8" stroke="#cfd8e3" stroke-width="14" />
    <rect x="160" y="130" width="800" height="380" rx="30" fill="#f7f9fb" stroke="#d5dde8" stroke-width="10" />
    <rect x="190" y="160" width="740" height="320" rx="26" fill="url(#track)" opacity="0.92" />
    <rect x="220" y="190" width="680" height="260" rx="24" fill="url(#field)" />
    <rect x="220" y="300" width="680" height="40" fill="#f8f1d7" opacity="0.6" />
    <rect x="520" y="190" width="40" height="260" fill="#f8f1d7" opacity="0.4" />
    <text x="560" y="320" text-anchor="middle" font-family="'adelle-sans','Adelle Sans',-apple-system,sans-serif" font-size="44" fill="#f8f1d7" font-weight="700" letter-spacing="0.08em">GOLDEN HAWKS</text>
    <g fill="#d3def0">
      <rect x="160" y="130" width="800" height="36" rx="18" />
      <rect x="160" y="474" width="800" height="36" rx="18" />
    </g>
    <g fill="#cbd6e6">
      <rect x="130" y="180" width="40" height="300" rx="16" />
      <rect x="1070" y="180" width="40" height="300" rx="16" />
    </g>
  </g>
  <g fill="#e9edf5" stroke="#cdd5e3" stroke-width="8" transform="rotate(-4 200 420)">
    <rect x="120" y="380" width="180" height="120" rx="18" />
    <rect x="340" y="320" width="190" height="140" rx="18" />
    <rect x="560" y="340" width="160" height="120" rx="18" />
    <rect x="760" y="360" width="180" height="120" rx="18" />
    <rect x="980" y="320" width="180" height="120" rx="18" />
  </g>
  <g fill="url(#roof)" stroke="#c3ccd8" stroke-width="8" transform="rotate(-4 980 280)">
    <rect x="820" y="240" width="220" height="86" rx="18" />
    <rect x="1060" y="220" width="140" height="72" rx="18" />
  </g>
  <g fill="#f2b34b" opacity="0.9">
    <circle cx="220" cy="540" r="38" />
    <circle cx="320" cy="520" r="32" />
    <circle cx="420" cy="500" r="36" />
    <circle cx="1040" cy="500" r="40" />
    <circle cx="1140" cy="520" r="32" />
  </g>
  <g fill="#2f3b4d" opacity="0.65">
    <path d="M240 600c-16-46 8-86 38-96l48 16 26-10c18 16 26 50 12 90l-38 10-44-18-42-2z" />
    <path d="M1120 608c-10-48 14-82 46-90l52 16 22-10c16 14 26 46 12 84l-36 12-50-18-46-4z" />
  </g>
  <g fill="#d8e1f0" opacity="0.6">
    <ellipse cx="240" cy="616" rx="52" ry="16" />
    <ellipse cx="1120" cy="624" rx="52" ry="18" />
  </g>
</svg>
