<svg xmlns="http://www.w3.org/2000/svg" viewBox="0 0 1440 810" role="img" aria-labelledby="title desc">
  <title id="title">Students walking near the University of Waterloo library</title>
  <desc id="desc">Illustrated fall scene with the Dana Porter Library, orange trees, and students walking along a curved path.</desc>
  <defs>
    <linearGradient id="sky" x1="0" y1="0" x2="0" y2="1">
      <stop offset="0%" stop-color="#cfe4ff" />
      <stop offset="100%" stop-color="#f4f7fb" />
    </linearGradient>
    <linearGradient id="ground" x1="0" y1="0" x2="0" y2="1">
      <stop offset="0%" stop-color="#f6fbff" />
      <stop offset="100%" stop-color="#d8e6f5" />
    </linearGradient>
    <linearGradient id="path" x1="0" y1="0" x2="0" y2="1">
      <stop offset="0%" stop-color="#e8e7e4" />
      <stop offset="100%" stop-color="#d7d4d0" />
    </linearGradient>
    <linearGradient id="tree" x1="0" y1="0" x2="0" y2="1">
      <stop offset="0%" stop-color="#f9b04c" />
      <stop offset="100%" stop-color="#e6772e" />
    </linearGradient>
    <linearGradient id="tree2" x1="0" y1="0" x2="0" y2="1">
      <stop offset="0%" stop-color="#e3a048" />
      <stop offset="100%" stop-color="#c76b1d" />
    </linearGradient>
  </defs>
  <rect width="1440" height="810" fill="url(#sky)" />
  <path d="M0 520c180-40 360-60 540-60s360 20 540 60 360 60 360 60v230H0Z" fill="url(#ground)" />
  <path d="M-20 660c180-120 440-150 620-132 180 18 320 36 560 152v150H-20Z" fill="#e5edf7" />
  <path d="M140 660c120-160 380-160 560-130s320 96 460 170" fill="none" stroke="#cfd8e3" stroke-width="28" stroke-linecap="round" />
  <path d="M240 670c90-120 300-132 440-112s280 64 360 110" fill="none" stroke="#d9dfea" stroke-width="24" stroke-linecap="round" />
  <path d="M100 640c160-130 360-140 520-126 160 14 360 90 520 210" fill="none" stroke="#c9d3e0" stroke-width="60" stroke-linecap="round" opacity="0.8" />
  <path d="M80 640c210-120 420-140 650-118 230 22 380 74 580 212" fill="#d9dad6" opacity="0.9" />
  <path d="M-40 710c140-140 340-210 540-210 200 0 420 60 640 220v150H-40Z" fill="url(#path)" />
  <rect x="520" y="200" width="420" height="360" rx="22" fill="#f2f4f8" stroke="#cfd8e3" stroke-width="14" />
  <rect x="546" y="226" width="368" height="308" rx="18" fill="#f8fafc" stroke="#d5dde8" stroke-width="10" />
  <g fill="#e3e8f0">
    <rect x="566" y="244" width="28" height="270" rx="8" />
    <rect x="612" y="244" width="28" height="270" rx="8" />
    <rect x="658" y="244" width="28" height="270" rx="8" />
    <rect x="704" y="244" width="28" height="270" rx="8" />
    <rect x="750" y="244" width="28" height="270" rx="8" />
    <rect x="796" y="244" width="28" height="270" rx="8" />
    <rect x="842" y="244" width="28" height="270" rx="8" />
  </g>
  <rect x="528" y="480" width="404" height="52" rx="14" fill="#f0f3f7" stroke="#cfd8e3" stroke-width="8" />
  <rect x="820" y="520" width="108" height="26" rx="10" fill="#1f2937" opacity="0.08" />
  <rect x="560" y="520" width="108" height="26" rx="10" fill="#1f2937" opacity="0.08" />
  <path d="M340 360c-80 16-120 62-160 140l120 18z" fill="#0f172a" opacity="0.08" />
  <g transform="translate(240 350)">
    <rect x="-20" y="110" width="80" height="190" rx="20" fill="#3b434f" />
    <rect x="0" y="120" width="40" height="170" rx="14" fill="#f8fafc" />
    <circle cx="20" cy="140" r="6" fill="#3b434f" />
  </g>
  <g transform="translate(1080 340)">
    <rect x="-12" y="120" width="60" height="210" rx="16" fill="#2d3748" />
    <rect x="8" y="132" width="20" height="170" rx="10" fill="#f8fafc" />
    <circle cx="18" cy="150" r="6" fill="#2d3748" />
  </g>
  <g fill="#e38b28">
    <ellipse cx="320" cy="520" rx="120" ry="30" opacity="0.45" />
    <ellipse cx="1120" cy="520" rx="120" ry="30" opacity="0.45" />
  </g>
  <g>
    <path d="M220 470c-26 70-16 140 32 180 48 40 128 42 200 24s144-58 218-58c74 0 150 44 224 60s142 4 188-66c-70 12-166 10-244-16-78-26-136-74-208-82s-156 20-224-2c-68-22-114-90-186-40z" fill="#f1f2f4" opacity="0.65" />
  </g>
  <g>
    <path d="M200 430c-30 18-46 56-44 98 2 42 24 88 72 110 48 22 122 20 190-16l-218-192z" fill="#f3b259" />
    <path d="M244 404c-10 8-24 52-12 110 12 58 44 116 64 130l50-30-102-210z" fill="#e6842c" />
  </g>
  <g>
    <path d="M1160 410c40 10 78 60 70 118-8 58-62 94-116 108s-106 2-170-28c0 0 50-22 106-38 56-16 116-26 110-160z" fill="url(#tree)" />
    <path d="M1124 400c12 12 16 54 4 110-12 56-40 112-66 138l-46-40 108-208z" fill="url(#tree2)" />
  </g>
  <g fill="#2e3644" stroke="#1f252f" stroke-width="4" stroke-linecap="round" stroke-linejoin="round" opacity="0.9">
    <path d="M520 590c-4-22 6-42 22-50l32 10 24-10c18 10 30 32 24 56l-34 8-34-12-34-2z" />
    <path d="M726 606c-2-22 10-42 28-50l36 12 18-8c14 10 22 32 14 54l-28 6-34-12-34-2z" />
    <path d="M420 606c-6-24 6-46 24-54l32 10 20-10c14 12 20 34 12 58l-28 8-32-12-28 0z" />
    <path d="M960 620c-4-26 10-48 30-56l36 12 18-8c14 12 22 36 12 62l-30 8-36-14-30-4z" />
  </g>
  <g fill="#1f2937" opacity="0.6">
    <circle cx="520" cy="602" r="6" />
    <circle cx="420" cy="616" r="6" />
    <circle cx="726" cy="616" r="6" />
    <circle cx="960" cy="630" r="6" />
  </g>
</svg>
